<?xml version="1.0" standalone="no"?>
<!DOCTYPE svg PUBLIC "-//W3C//DTD SVG 20010904//EN"
 "http://www.w3.org/TR/2001/REC-SVG-20010904/DTD/svg10.dtd">
<svg version="1.0" xmlns="http://www.w3.org/2000/svg"
 width="1899.000000pt" height="1232.000000pt" viewBox="0 0 1899.000000 1232.000000"
 preserveAspectRatio="xMidYMid meet">

<g transform="translate(0.000000,1232.000000) scale(0.100000,-0.100000)"
fill="#000000" stroke="none">
<path d="M6093 10145 c3 -11 11 -96 17 -190 19 -309 65 -875 85 -1055 56 -503
95 -723 146 -825 17 -33 34 -62 38 -65 4 -3 36 -43 71 -90 35 -47 75 -99 89
-116 14 -17 40 -48 56 -69 17 -22 46 -58 65 -81 19 -22 53 -63 75 -89 22 -27
56 -67 75 -90 19 -23 53 -64 75 -90 22 -27 56 -67 75 -90 19 -23 53 -64 75
-90 22 -27 58 -70 80 -95 22 -26 63 -74 90 -106 28 -32 70 -82 95 -110 25 -28
70 -79 100 -114 30 -35 73 -85 95 -110 22 -26 65 -75 95 -111 30 -35 75 -86
100 -115 25 -28 70 -79 100 -114 30 -34 83 -95 117 -134 35 -39 63 -75 63 -80
0 -9 -242 -255 -1350 -1369 -543 -547 -563 -569 -525 -563 38 5 206 18 660 51
504 37 933 82 1115 119 41 8 98 19 125 25 48 9 88 23 165 58 31 14 117 69 130
83 3 3 34 28 69 55 35 26 96 76 136 109 39 34 93 79 120 101 27 22 70 58 95
80 80 69 220 188 300 255 231 194 426 361 520 444 30 27 69 61 85 75 17 14 82
71 145 126 63 55 128 111 144 125 16 14 34 30 40 35 97 87 158 136 165 133 9
-3 712 -694 1380 -1356 157 -156 346 -343 419 -415 l134 -132 -6 70 c-3 39
-13 167 -21 285 -43 606 -102 1177 -149 1450 -29 166 -38 205 -52 237 -8 17
-14 34 -14 38 0 6 -59 95 -70 105 -3 3 -37 46 -75 95 -39 50 -80 101 -91 115
-12 14 -46 55 -75 91 -96 118 -300 366 -324 393 -6 6 -23 27 -39 46 -67 82
-104 126 -146 175 -25 28 -58 67 -75 86 -30 35 -153 178 -184 214 -9 11 -52
61 -96 111 -44 50 -105 120 -135 155 -201 233 -242 279 -287 328 -23 25 -38
51 -35 57 4 7 329 338 724 735 784 792 1167 1183 1164 1186 -4 5 -665 -42
-736 -52 -19 -3 -93 -10 -165 -15 -404 -31 -990 -103 -1050 -130 -11 -5 -39
-14 -61 -20 -70 -17 -253 -151 -535 -390 -42 -36 -122 -103 -179 -150 -126
-105 -139 -116 -170 -143 -14 -12 -47 -40 -75 -62 -27 -22 -52 -43 -55 -46 -3
-3 -151 -131 -330 -285 -364 -312 -516 -444 -602 -521 -32 -29 -64 -53 -71
-53 -7 0 -200 185 -428 411 -301 299 -1363 1348 -1503 1485 -5 5 -6 0 -3 -11z
m5690 -148 c0 -5 -287 -298 -636 -650 -349 -353 -739 -749 -867 -879 -128
-131 -239 -238 -247 -238 -15 0 -103 -26 -138 -40 -184 -76 -410 -217 -549
-345 -21 -19 -42 -35 -46 -35 -24 0 -24 518 0 624 5 22 13 73 19 111 11 85 29
171 41 205 5 14 19 59 31 100 12 41 26 82 30 90 5 8 18 38 29 65 64 153 199
365 318 500 147 167 287 305 308 305 12 0 25 4 28 9 4 5 30 12 59 16 28 3 63
10 77 15 14 6 63 14 110 19 138 16 323 40 350 46 14 3 84 10 155 16 72 6 198
17 280 25 83 7 229 18 325 24 96 6 193 15 215 20 48 10 111 8 108 -3z m-4744
-917 c441 -437 982 -973 1201 -1191 220 -218 400 -402 400 -408 0 -10 -22 -49
-47 -80 -3 -4 -137 -14 -357 -27 -138 -9 -442 17 -601 50 -128 27 -254 60
-290 76 -11 5 -31 12 -45 16 -14 4 -67 26 -118 50 -52 24 -96 44 -98 44 -10 0
-197 119 -249 159 -88 67 -126 100 -277 243 -134 126 -137 130 -156 196 -42
147 -106 687 -157 1322 -24 309 -26 352 -17 348 5 -1 370 -361 811 -798z
m2507 313 c-4 -9 -27 -46 -51 -83 -147 -221 -246 -508 -292 -850 -17 -124 -25
-584 -13 -720 l5 -55 -81 3 c-82 4 -228 -20 -240 -39 -3 -5 -12 -9 -21 -9 -9
0 -40 -16 -69 -36 -29 -20 -57 -35 -62 -33 -21 8 -612 592 -612 605 0 7 28 37
63 65 34 28 95 81 135 117 40 35 85 74 100 86 15 11 32 26 37 32 11 12 321
279 439 378 68 57 123 103 176 150 14 12 84 71 155 131 72 60 146 122 166 139
77 67 95 82 128 109 39 31 46 33 37 10z m604 -1335 c34 -40 71 -84 83 -98 11
-14 50 -59 86 -101 36 -42 77 -89 91 -105 13 -16 136 -159 273 -319 137 -159
256 -299 266 -310 41 -49 191 -227 246 -291 33 -39 71 -84 84 -100 13 -16 33
-39 44 -51 33 -37 7 -27 -83 32 -170 111 -457 231 -625 261 -22 3 -47 10 -56
15 -9 4 -51 13 -95 19 -43 6 -106 16 -139 21 -70 10 -568 13 -669 3 l-69 -7 5
59 c6 69 -7 216 -21 241 -6 10 -22 44 -36 75 -31 68 -111 159 -170 193 -23 14
-50 34 -59 44 -18 20 -23 14 75 96 13 12 58 51 99 87 86 75 211 158 320 213
100 51 97 49 165 69 33 10 65 20 70 21 37 12 55 1 115 -67z m-3243 -468 c184
-125 481 -237 728 -275 22 -4 63 -11 90 -16 28 -5 136 -16 242 -24 185 -14
287 -12 518 10 l60 6 0 -118 c0 -137 16 -201 78 -301 22 -35 38 -65 36 -67
-207 -213 -604 -605 -613 -604 -9 0 -37 30 -154 167 -13 15 -33 38 -45 52 -12
14 -47 54 -77 90 -30 36 -58 67 -61 70 -8 6 -480 559 -534 625 -22 26 -71 85
-110 130 -38 45 -79 93 -90 106 -33 41 -129 153 -142 167 -14 14 -17 32 -6 32
3 0 39 -23 80 -50z m3283 -655 c265 -21 452 -58 645 -129 142 -51 390 -194
502 -289 32 -27 69 -58 83 -69 58 -49 121 -106 207 -191 100 -98 97 -93 129
-257 8 -41 21 -124 29 -185 8 -60 21 -166 30 -235 18 -137 38 -352 55 -585 6
-82 15 -177 20 -210 16 -103 24 -335 11 -335 -6 0 -237 224 -513 498 -882 873
-1619 1603 -1762 1743 l-138 136 23 41 c13 23 35 46 49 51 21 8 213 22 405 29
22 1 123 -5 225 -13z m-465 -487 c168 -166 304 -305 303 -309 -3 -7 -91 -87
-199 -179 -35 -30 -88 -77 -119 -104 -90 -79 -300 -262 -364 -316 -16 -14 -50
-43 -76 -65 -59 -50 -74 -63 -229 -193 -69 -58 -142 -119 -161 -136 -20 -17
-58 -49 -85 -71 -27 -22 -70 -58 -95 -80 -108 -97 -146 -120 -113 -67 10 15
20 29 23 32 30 26 200 356 200 389 0 6 4 19 9 29 33 63 82 259 107 427 31 212
39 572 18 780 l-5 50 118 0 c137 0 214 21 297 80 27 19 53 35 58 35 4 0 146
-136 313 -302z m-935 257 c19 -14 39 -36 43 -48 15 -36 21 -609 8 -722 -14
-128 -36 -254 -56 -330 -9 -33 -21 -80 -27 -105 -5 -25 -14 -49 -19 -55 -5 -5
-9 -16 -9 -25 0 -8 -7 -28 -15 -44 -8 -15 -15 -33 -15 -38 0 -10 -40 -92 -101
-205 -68 -128 -256 -362 -433 -538 -87 -86 -94 -91 -161 -108 -89 -22 -154
-31 -515 -76 -242 -31 -263 -32 -625 -61 -77 -6 -180 -15 -230 -20 -169 -18
-288 -23 -284 -12 9 23 2380 2412 2394 2412 6 0 27 -11 45 -25z"/>
<path d="M4350 5261 c-112 -36 -173 -132 -156 -245 14 -93 72 -151 229 -231
81 -40 117 -84 117 -138 0 -35 -6 -49 -30 -72 -25 -24 -40 -30 -93 -33 -53 -3
-70 1 -119 26 -64 32 -68 31 -102 -35 -21 -41 -21 -40 17 -60 206 -111 428
-38 453 150 14 104 -42 184 -187 265 -103 57 -126 74 -152 112 -38 54 -9 128
59 150 44 15 96 6 151 -26 l42 -24 26 50 c14 28 23 55 20 61 -4 5 -25 19 -48
31 -46 23 -180 35 -227 19z"/>
<path d="M3700 4850 l0 -410 195 0 195 0 0 50 0 50 -135 0 -135 0 0 135 0 135
95 0 95 0 0 50 0 50 -95 0 -96 0 3 123 3 122 118 3 118 3 -3 47 -3 47 -177 3
-178 2 0 -410z"/>
<path d="M4720 5210 l0 -49 103 -3 102 -3 3 -357 2 -358 60 0 60 0 0 354 c0
313 2 355 16 360 9 3 58 6 110 6 l94 0 0 50 0 50 -275 0 -275 0 0 -50z"/>
<path d="M14776 5122 c-11 -18 -196 -529 -196 -542 0 -6 60 -10 160 -10 l160
0 0 -90 0 -90 55 0 55 0 0 90 0 90 50 0 50 0 0 49 0 50 -47 3 -48 3 -3 83 -3
82 -48 0 -48 0 -6 -76 c-4 -42 -9 -80 -13 -85 -3 -5 -41 -9 -85 -9 -68 0 -79
2 -79 17 0 14 96 288 131 371 14 36 11 42 -26 58 -39 16 -52 17 -59 6z"/>
<path d="M12965 5102 c-46 -21 -127 -108 -123 -130 2 -8 18 -23 37 -33 l34
-18 47 49 c44 48 48 50 99 50 45 0 57 -4 82 -29 25 -25 29 -37 29 -83 0 -72
-27 -118 -194 -331 -75 -96 -136 -177 -136 -181 0 -3 106 -6 235 -6 l235 0 0
50 0 50 -129 0 c-72 0 -132 4 -135 8 -2 4 33 55 80 112 46 58 99 134 116 169
64 127 45 251 -46 308 -56 36 -171 43 -231 15z"/>
<path d="M13580 5104 c-76 -33 -122 -100 -146 -213 -35 -169 1 -368 83 -442
59 -54 73 -59 164 -59 79 0 89 2 125 29 53 39 69 58 93 114 50 116 50 332 0
447 -25 59 -94 125 -140 134 -54 11 -143 6 -179 -10z m178 -112 c42 -39 62
-114 62 -233 0 -127 -15 -193 -56 -235 -28 -31 -37 -34 -86 -34 -47 0 -58 4
-82 29 -41 42 -57 110 -57 236 -1 139 19 208 70 242 50 33 110 31 149 -5z"/>
<path d="M14164 5102 c-44 -21 -126 -109 -122 -131 2 -7 19 -22 38 -33 l35
-18 29 35 c57 71 141 87 197 37 27 -24 31 -35 32 -77 1 -78 -30 -129 -223
-374 -58 -73 -106 -137 -108 -142 -2 -5 90 -9 232 -9 l236 0 0 50 0 50 -129 0
c-72 0 -132 4 -135 8 -2 4 33 55 80 112 46 58 99 134 116 169 63 125 46 249
-42 307 -56 37 -174 45 -236 16z"/>
<path d="M5270 4560 c-13 -13 -20 -33 -20 -58 0 -74 75 -108 125 -57 31 30 32
73 4 109 -26 33 -79 36 -109 6z"/>
<path d="M7990 3830 c-199 -33 -325 -101 -462 -249 -78 -85 -156 -232 -184
-351 -26 -105 -26 -327 0 -430 79 -316 306 -539 610 -600 301 -61 576 22 774
235 159 170 234 405 211 667 -11 127 -30 196 -88 313 -92 188 -246 319 -454
390 -48 16 -232 46 -274 44 -16 -1 -75 -9 -133 -19z m264 -266 c249 -64 386
-259 386 -550 0 -216 -68 -368 -212 -476 -81 -60 -146 -81 -270 -86 -89 -3
-119 -1 -175 16 -158 48 -288 185 -335 350 -14 49 -19 100 -19 192 0 141 14
211 62 306 98 196 343 305 563 248z"/>
<path d="M1095 3831 c-213 -35 -349 -168 -373 -364 -24 -189 45 -350 196 -460
26 -19 111 -67 189 -107 193 -98 251 -150 268 -243 29 -152 -138 -247 -332
-188 -62 19 -187 83 -198 101 -16 25 -38 2 -94 -99 -34 -60 -61 -116 -61 -125
0 -36 168 -118 308 -151 131 -31 308 -12 430 46 85 41 164 121 205 206 31 65
32 73 32 193 0 121 -1 128 -33 192 -50 103 -143 183 -338 292 -190 107 -256
158 -280 221 -33 87 -3 174 73 211 87 43 267 14 348 -57 18 -16 37 -29 42 -29
11 0 133 206 133 225 0 21 -93 80 -175 111 -57 21 -90 27 -180 30 -60 1 -132
-1 -160 -5z"/>
<path d="M5230 3826 c-152 -28 -282 -127 -331 -253 -31 -80 -38 -228 -14 -309
43 -147 135 -241 338 -344 157 -80 206 -112 254 -162 40 -41 53 -76 53 -137 0
-65 -30 -109 -100 -143 -108 -54 -262 -26 -407 73 -23 16 -45 29 -50 29 -9 0
-127 -207 -130 -230 -6 -36 140 -112 292 -151 135 -36 330 -17 449 43 69 35
164 125 195 186 34 67 54 168 48 247 -15 189 -112 304 -377 447 -143 78 -238
143 -263 181 -47 72 -45 156 4 211 54 62 148 80 261 50 67 -17 97 -33 144 -76
37 -34 31 -40 113 102 l62 105 -33 29 c-45 39 -164 92 -234 105 -73 14 -190
13 -274 -3z"/>
<path d="M13895 3829 c-114 -19 -200 -64 -268 -138 -88 -99 -121 -222 -99
-372 24 -169 130 -291 343 -398 269 -135 315 -182 307 -307 -5 -76 -26 -105
-106 -140 -107 -48 -245 -22 -390 74 -64 42 -58 46 -138 -97 l-58 -104 37 -32
c43 -38 153 -86 261 -115 135 -36 319 -21 442 36 27 13 77 48 110 78 119 108
168 263 133 428 -29 136 -137 256 -324 358 -33 18 -94 51 -135 74 -146 79
-221 180 -204 272 27 144 271 178 428 59 25 -20 50 -34 55 -30 5 3 37 53 71
112 l61 106 -23 24 c-33 35 -172 100 -242 112 -68 13 -188 13 -261 0z"/>
<path d="M15015 3833 c-119 -16 -217 -64 -289 -144 -70 -78 -96 -144 -103
-260 -9 -146 32 -260 130 -359 67 -67 109 -95 242 -162 239 -119 293 -177 283
-304 -6 -66 -31 -97 -106 -130 -62 -28 -128 -31 -216 -8 -59 15 -147 58 -195
95 -13 11 -29 19 -35 19 -6 0 -40 -52 -75 -116 l-63 -116 27 -28 c32 -34 159
-90 267 -119 139 -38 325 -21 452 39 69 33 170 135 201 202 51 111 57 250 16
357 -46 122 -147 214 -371 336 -197 108 -252 156 -270 237 -20 95 22 165 115
194 62 18 102 18 179 -2 60 -15 151 -65 158 -86 9 -26 38 6 96 107 l63 108
-23 24 c-33 35 -172 100 -242 112 -57 11 -178 12 -241 4z"/>
<path d="M1900 3010 l0 -810 140 0 140 0 0 810 0 810 -140 0 -140 0 0 -810z"/>
<path d="M2460 3009 l0 -811 308 4 c298 5 310 5 402 32 146 42 241 96 336 191
66 66 89 98 128 175 69 142 97 263 97 432 1 379 -156 613 -491 732 -117 42
-244 56 -527 56 l-253 0 0 -811z m650 523 c224 -80 320 -232 320 -507 0 -193
-53 -340 -156 -434 -99 -90 -202 -123 -394 -125 l-125 -1 -3 549 -2 549 152
-6 c117 -4 166 -10 208 -25z"/>
<path d="M3925 3808 c-3 -7 -4 -371 -3 -808 l3 -795 400 0 400 0 0 125 0 125
-255 5 -255 5 -3 219 c-2 169 1 221 10 228 7 4 89 8 181 8 l168 0 -3 128 -3
127 -177 3 -178 2 0 190 0 190 223 2 222 3 0 125 0 125 -363 3 c-285 2 -364 0
-367 -10z"/>
<path d="M6040 3010 l0 -810 140 0 140 0 2 363 3 362 244 3 c189 2 246 -1 253
-10 4 -7 8 -172 8 -365 l0 -353 140 0 140 0 0 810 0 810 -140 0 -140 0 -2
-317 -3 -318 -250 0 -250 0 -3 318 -2 317 -140 0 -140 0 0 -810z"/>
<path d="M9156 3804 c-8 -20 -8 -1568 0 -1588 5 -14 28 -16 145 -16 l139 0 0
278 c0 152 4 282 8 288 4 6 48 14 97 18 138 10 214 26 290 61 180 82 275 249
275 479 0 222 -102 384 -280 448 -104 38 -196 48 -435 48 -203 0 -234 -2 -239
-16z m547 -282 c87 -49 123 -124 115 -242 -11 -150 -93 -221 -272 -236 -70 -5
-90 -4 -97 7 -10 16 -12 451 -2 488 6 23 7 24 105 18 84 -4 105 -9 151 -35z"/>
<path d="M10810 3010 l0 -810 139 0 c117 0 140 2 145 16 3 9 6 173 6 365 l0
349 248 -2 247 -3 3 -363 2 -363 143 3 142 3 0 805 0 805 -140 0 -140 0 -5
-315 -5 -315 -245 0 -245 0 -5 315 c-3 173 -7 316 -8 318 -1 1 -65 2 -142 2
l-140 0 0 -810z"/>
<path d="M12143 3248 c4 -557 4 -575 26 -653 79 -280 260 -415 558 -415 283 0
463 142 545 430 21 72 22 99 25 643 l4 567 -139 0 c-118 0 -141 -2 -146 -16
-3 -9 -6 -250 -6 -537 -1 -555 -4 -596 -50 -691 -51 -107 -191 -152 -342 -110
-47 14 -67 26 -102 65 -84 94 -95 185 -95 842 l-1 447 -141 0 -140 0 4 -572z"/>
<path d="M15785 3808 c-3 -7 -4 -371 -3 -808 l3 -795 364 -3 c285 -2 366 1
373 10 13 21 10 232 -4 246 -9 9 -74 12 -230 12 l-218 0 0 675 0 675 -140 0
c-103 0 -142 -3 -145 -12z"/>
<path d="M16660 3010 l0 -810 400 0 400 0 0 130 0 130 -257 2 -258 3 -3 214
c-2 149 1 218 9 227 9 11 50 14 185 14 l174 0 0 119 c0 86 -4 122 -13 130 -8
6 -79 12 -183 13 l-169 3 0 185 0 185 223 3 223 2 -3 128 -3 127 -362 3 -363
2 0 -810z"/>
<path d="M5600 1370 l0 -210 25 0 c23 0 24 3 27 77 l3 77 33 8 c17 4 47 12 64
16 43 10 78 62 78 114 0 87 -52 128 -164 128 l-66 0 0 -210z m150 140 c13 -13
20 -33 20 -59 0 -49 -37 -84 -84 -79 -31 3 -31 4 -34 67 -2 35 -1 70 2 77 8
22 73 17 96 -6z"/>
<path d="M7872 1373 c3 -207 3 -208 26 -211 19 -3 22 1 22 27 0 40 16 81 32
81 7 0 27 -24 43 -53 24 -40 37 -53 58 -55 37 -4 35 11 -13 86 -22 34 -40 65
-40 68 0 3 18 27 40 53 22 26 40 50 40 54 0 4 -13 7 -30 7 -24 0 -37 -10 -67
-50 -57 -77 -63 -70 -63 75 l0 125 -25 0 -25 0 2 -207z"/>
<path d="M9952 1373 c3 -207 3 -208 26 -211 21 -3 22 0 22 73 0 107 22 145 85
145 34 0 39 -14 45 -120 5 -89 6 -95 28 -98 22 -3 22 -2 22 108 0 104 -1 112
-25 135 -28 29 -80 33 -111 10 -39 -29 -44 -20 -44 75 0 90 0 90 -25 90 l-25
0 2 -207z"/>
<path d="M11070 1490 c0 -49 -4 -90 -9 -90 -5 0 -22 7 -37 15 -86 45 -174 -14
-174 -117 0 -55 17 -87 59 -115 42 -28 76 -29 119 -3 l34 21 5 -21 c4 -15 12
-20 27 -18 21 3 21 8 24 211 l2 207 -25 0 c-25 0 -25 0 -25 -90z m-35 -135
c26 -25 31 -57 15 -99 -22 -59 -106 -60 -135 0 -42 88 53 167 120 99z"/>
<path d="M6051 1531 c-13 -24 8 -55 34 -50 28 6 42 34 26 53 -18 22 -48 20
-60 -3z"/>
<path d="M11884 1536 c-11 -28 1 -51 25 -51 32 0 49 28 32 49 -17 20 -50 21
-57 2z"/>
<path d="M5862 1298 l3 -133 25 0 c24 0 25 2 28 85 3 95 17 120 64 120 24 0
28 4 28 30 0 37 -24 40 -64 9 l-26 -20 0 20 c0 17 -6 21 -30 21 l-31 0 3 -132z"/>
<path d="M6060 1294 c0 -135 0 -135 23 -132 21 3 22 7 25 136 l3 132 -26 0
-25 0 0 -136z"/>
<path d="M6245 1420 c-11 -4 -31 -20 -45 -35 -33 -36 -36 -129 -4 -171 30 -41
92 -61 142 -46 33 10 39 16 35 33 -5 17 -11 19 -49 13 -37 -5 -46 -3 -68 19
-34 34 -36 97 -5 128 16 16 30 20 67 17 41 -3 47 -1 50 18 2 15 -4 23 -20 28
-31 8 -79 7 -103 -4z"/>
<path d="M6473 1410 c-78 -47 -83 -177 -9 -225 54 -36 172 -26 164 14 -3 12
-17 16 -65 16 -50 0 -65 4 -77 20 -9 11 -14 25 -12 30 1 6 42 11 89 13 l87 3
0 34 c0 97 -93 147 -177 95z m111 -46 c28 -27 18 -34 -49 -34 -36 0 -65 3 -65
7 0 3 7 15 17 25 20 22 76 24 97 2z"/>
<path d="M6726 1409 c-51 -40 -22 -113 55 -135 18 -5 37 -17 43 -27 16 -26 -8
-38 -69 -35 -38 2 -50 -1 -53 -12 -2 -10 10 -20 31 -28 47 -17 77 -15 115 8
30 19 33 24 30 62 -3 40 -5 43 -61 70 -72 36 -76 63 -9 64 54 1 75 19 48 40
-30 21 -98 18 -130 -7z"/>
<path d="M7072 1298 l3 -133 25 0 c24 0 25 2 30 88 4 78 8 91 29 108 27 22 64
25 79 6 6 -7 13 -56 14 -108 3 -93 3 -94 28 -94 24 0 25 2 31 85 6 99 13 118
44 126 61 15 72 -5 74 -133 1 -82 1 -83 26 -83 l25 0 0 110 c0 104 -1 112 -25
135 -30 31 -78 33 -119 6 -29 -19 -30 -19 -54 0 -29 23 -89 25 -116 4 -25 -19
-36 -19 -36 0 0 10 -10 15 -30 15 l-31 0 3 -132z"/>
<path d="M7599 1415 c-41 -22 -59 -58 -59 -118 0 -61 21 -97 70 -122 39 -20
66 -19 105 5 l33 20 5 -21 c4 -15 12 -20 29 -17 23 3 23 5 26 136 l3 132 -31
0 c-20 0 -30 -5 -30 -15 0 -18 -8 -18 -40 0 -32 18 -78 18 -111 0z m118 -50
c30 -21 39 -74 19 -113 -18 -35 -70 -51 -105 -33 -23 13 -41 67 -34 105 10 50
75 72 120 41z"/>
<path d="M8172 1410 c-35 -21 -62 -72 -62 -115 0 -69 69 -135 139 -135 44 0
87 22 83 43 -3 15 -11 16 -57 11 -49 -6 -56 -4 -80 20 -14 14 -23 31 -20 36 3
6 44 10 90 10 93 0 99 4 85 66 -18 78 -104 109 -178 64z m109 -40 c10 -6 19
-17 19 -25 0 -12 -15 -15 -65 -15 -68 0 -79 9 -43 34 26 18 61 20 89 6z"/>
<path d="M8438 1412 c-22 -13 -28 -24 -28 -53 0 -42 16 -60 83 -88 26 -11 47
-24 47 -29 0 -23 -31 -34 -78 -27 -44 6 -50 4 -54 -13 -4 -16 2 -22 32 -31 50
-15 75 -14 109 4 31 15 41 33 41 69 0 29 -23 50 -83 76 -34 15 -47 26 -45 38
3 13 15 17 51 17 35 0 51 5 58 17 21 37 -82 53 -133 20z"/>
<path d="M8750 1423 c0 -5 22 -65 50 -135 l49 -127 -24 -62 c-14 -35 -25 -64
-25 -66 0 -2 12 -3 28 -3 26 0 29 7 76 133 27 72 62 163 77 200 l27 68 -31 -3
c-29 -3 -33 -7 -62 -93 -18 -49 -36 -89 -41 -88 -5 1 -22 42 -37 92 -27 88
-30 91 -58 91 -16 0 -29 -3 -29 -7z"/>
<path d="M9082 1410 c-34 -21 -62 -72 -62 -112 0 -42 38 -103 75 -121 44 -21
65 -21 110 -3 46 20 75 69 75 129 0 40 -5 53 -33 83 -43 47 -113 57 -165 24z
m111 -43 c38 -27 38 -117 0 -144 -44 -33 -113 8 -113 67 0 33 15 70 34 82 17
12 60 9 79 -5z"/>
<path d="M9330 1358 c1 -104 14 -158 41 -179 30 -23 72 -24 106 -2 24 16 26
16 38 0 7 -9 20 -17 29 -17 14 0 16 17 16 135 l0 135 -25 0 c-25 0 -25 -1 -25
-85 0 -78 -2 -88 -25 -110 -25 -26 -50 -31 -75 -15 -11 7 -16 34 -18 110 l-4
100 -29 0 -29 0 0 -72z"/>
<path d="M9630 1295 l0 -135 24 0 c23 0 24 3 28 85 5 93 20 122 67 127 20 2
27 9 29 31 3 23 0 27 -21 27 -13 0 -32 -9 -43 -21 l-18 -20 -8 20 c-5 14 -16
21 -33 21 l-25 0 0 -135z"/>
<path d="M10296 1411 c-41 -27 -55 -57 -56 -117 0 -57 21 -94 70 -119 34 -18
93 -19 123 -4 29 16 28 14 21 33 -5 13 -15 15 -55 10 -56 -7 -99 13 -99 46 0
18 7 20 91 20 l92 0 -6 47 c-10 90 -105 134 -181 84z m112 -43 c27 -27 13 -38
-48 -38 -46 0 -60 3 -60 15 0 31 82 49 108 23z"/>
<path d="M10571 1405 c-51 -43 -64 -128 -28 -187 14 -22 77 -58 104 -58 10 0
33 9 51 20 l34 21 5 -21 c3 -13 14 -20 29 -20 l24 0 0 135 0 135 -25 0 c-16 0
-25 -6 -25 -15 0 -18 -8 -18 -40 0 -40 23 -94 19 -129 -10z m129 -35 c26 -14
43 -71 31 -103 -12 -30 -47 -57 -76 -57 -67 0 -100 104 -49 155 18 17 66 20
94 5z"/>
<path d="M11346 1409 c-19 -15 -26 -30 -26 -54 0 -37 24 -60 93 -88 40 -17 45
-28 22 -47 -10 -8 -31 -10 -65 -5 -46 6 -50 5 -50 -13 0 -41 94 -55 148 -22
26 16 32 26 32 53 0 39 -17 58 -81 90 -60 30 -58 52 4 52 35 0 51 5 58 17 22
39 -89 54 -135 17z"/>
<path d="M11560 1230 l0 -200 25 0 c25 0 25 1 25 80 0 44 3 80 8 80 4 -1 18
-7 32 -15 53 -30 130 -6 161 51 18 34 18 113 1 146 -30 56 -117 76 -165 38
-14 -11 -28 -20 -31 -20 -3 0 -6 9 -6 20 0 15 -7 20 -25 20 l-25 0 0 -200z
m190 123 c17 -22 21 -37 17 -68 -10 -69 -68 -96 -121 -54 -34 27 -37 98 -6
129 30 30 83 27 110 -7z"/>
<path d="M11884 1417 c-2 -7 -3 -67 -2 -133 l3 -119 25 0 25 0 3 133 3 132
-26 0 c-14 0 -28 -6 -31 -13z"/>
<path d="M12012 1298 l3 -133 25 0 c24 0 25 2 28 85 2 70 7 89 24 107 23 25
72 31 85 11 4 -7 10 -56 13 -108 5 -93 5 -95 30 -95 24 0 25 3 28 65 2 36 0
85 -3 109 -13 84 -79 115 -151 70 l-34 -21 0 21 c0 16 -6 21 -25 21 l-26 0 3
-132z"/>
<path d="M12312 1298 l3 -133 25 0 c24 0 25 2 28 85 2 70 7 89 24 107 23 25
72 31 85 11 4 -7 10 -56 13 -108 5 -93 5 -95 30 -95 24 0 25 3 28 65 2 36 0
85 -3 109 -13 84 -79 115 -151 70 l-34 -21 0 21 c0 16 -6 21 -25 21 l-26 0 3
-132z"/>
</g>
</svg>
