<?xml version="1.0" standalone="no"?>
<!DOCTYPE svg PUBLIC "-//W3C//DTD SVG 20010904//EN"
 "http://www.w3.org/TR/2001/REC-SVG-20010904/DTD/svg10.dtd">
<svg version="1.0" xmlns="http://www.w3.org/2000/svg"
 width="2000.000000pt" height="1208.000000pt" viewBox="0 0 2000.000000 1208.000000"
 preserveAspectRatio="xMidYMid meet">

<g transform="translate(0.000000,1208.000000) scale(0.100000,-0.100000)"
fill="#000000" stroke="none">
<path d="M6695 9993 c3 -26 12 -149 20 -273 9 -124 23 -295 31 -380 8 -85 14
-175 14 -200 0 -77 50 -511 82 -710 29 -183 45 -261 60 -295 18 -41 95 -155
163 -240 31 -38 68 -86 83 -105 15 -19 43 -53 62 -76 19 -22 53 -63 75 -89 22
-27 58 -70 80 -95 22 -26 49 -58 60 -71 18 -22 165 -196 289 -344 28 -33 53
-62 56 -65 5 -4 97 -112 164 -190 158 -186 224 -263 410 -474 82 -93 98 -115
94 -125 -3 -8 -844 -862 -1499 -1522 -246 -247 -297 -301 -272 -286 7 4 112
14 235 23 663 45 1333 108 1418 134 19 5 58 14 85 19 112 21 170 40 234 75 44
25 199 137 254 184 96 83 219 188 307 262 65 55 136 115 170 143 70 60 172
147 220 187 155 130 247 209 310 265 31 28 69 61 86 75 30 26 250 217 270 235
118 106 182 157 193 153 5 -2 234 -226 508 -498 873 -866 1284 -1272 1287
-1268 4 5 -22 418 -38 608 -62 724 -92 973 -146 1220 -17 78 -34 112 -110 215
-80 108 -175 227 -320 400 -19 23 -53 63 -75 90 -22 26 -56 67 -75 90 -19 23
-53 63 -75 89 -22 27 -44 54 -50 60 -5 6 -32 38 -60 71 -27 33 -84 99 -125
146 -41 47 -100 115 -130 150 -30 35 -73 84 -95 110 -22 25 -51 59 -65 75 -44
52 -214 248 -246 284 -95 105 -134 155 -132 166 3 12 188 200 1291 1312 264
265 478 484 476 486 -5 4 -435 -21 -484 -29 -22 -3 -101 -10 -175 -16 -616
-44 -1133 -113 -1255 -165 -38 -17 -130 -83 -270 -195 -125 -100 -362 -295
-375 -309 -3 -3 -43 -37 -90 -75 -47 -39 -96 -80 -110 -91 -55 -48 -197 -167
-220 -187 -14 -11 -59 -50 -101 -86 -42 -36 -89 -77 -105 -90 -16 -14 -63 -54
-105 -90 -42 -36 -89 -77 -105 -90 -16 -13 -70 -61 -120 -105 -173 -153 -217
-191 -240 -206 -23 -14 -30 -8 -276 237 -139 138 -271 268 -293 288 -22 20
-308 303 -635 629 -327 326 -600 595 -607 599 -9 6 -11 -5 -8 -40z m5313 -103
c-9 -27 -1624 -1650 -1642 -1650 -40 0 -313 -114 -336 -140 -3 -3 -23 -17 -45
-30 -47 -28 -173 -120 -230 -167 -63 -54 -66 -55 -73 -48 -12 11 -6 494 7 580
22 149 55 314 71 350 5 11 12 31 15 45 4 14 12 39 19 55 8 17 20 46 27 65 48
120 138 273 242 410 87 114 326 360 351 360 12 0 26 4 31 9 19 18 435 77 745
106 91 9 181 18 200 20 19 3 103 10 185 16 83 6 193 14 245 18 149 12 192 12
188 1z m-4458 -830 c1345 -1331 1520 -1507 1520 -1519 0 -6 -10 -27 -22 -45
-22 -34 -26 -35 -108 -43 -125 -11 -554 -7 -635 7 -38 6 -106 18 -150 25 -116
19 -252 54 -310 79 -16 7 -46 19 -65 26 -144 53 -364 183 -466 275 -6 6 -47
41 -90 80 -192 170 -229 211 -247 272 -39 139 -105 686 -137 1153 -6 80 -15
181 -20 224 -12 99 -13 189 -1 184 5 -1 334 -325 731 -718z m2356 245 c-15
-19 -26 -36 -26 -39 0 -3 -13 -24 -28 -48 -52 -78 -121 -222 -147 -308 -9 -30
-21 -64 -25 -75 -8 -20 -16 -48 -46 -170 -34 -141 -47 -272 -51 -548 -2 -152
0 -299 5 -325 5 -26 7 -52 5 -57 -2 -6 -47 -9 -109 -7 -121 4 -184 -13 -282
-75 -29 -18 -55 -33 -58 -33 -15 0 -576 572 -568 579 15 13 118 104 151 132
35 31 192 168 278 243 33 29 130 112 215 185 85 73 166 143 180 155 14 12 68
57 120 101 52 44 101 87 110 95 9 8 30 26 46 39 16 13 47 40 69 60 43 38 127
108 154 128 29 21 32 2 7 -32z m532 -1173 c9 -10 28 -32 41 -48 31 -37 192
-222 291 -335 41 -47 86 -98 100 -115 13 -16 96 -112 183 -214 87 -102 168
-196 180 -210 11 -14 34 -41 51 -60 17 -20 51 -60 76 -90 25 -29 50 -58 55
-64 6 -6 28 -34 50 -61 21 -28 42 -52 45 -55 21 -20 80 -100 73 -100 -4 0 -44
22 -88 50 -68 41 -165 92 -250 131 -58 26 -180 68 -255 88 -47 12 -99 27 -116
32 -31 9 -110 21 -259 40 -88 11 -508 13 -596 3 l-57 -6 -4 128 c-4 112 -7
136 -30 184 -42 90 -106 167 -180 216 -37 25 -68 49 -68 54 0 4 23 28 52 52
28 23 59 50 68 58 140 134 397 292 518 319 24 5 46 12 49 15 13 12 54 5 71
-12z m-2991 -485 c95 -61 193 -114 255 -137 29 -11 62 -25 73 -30 34 -15 218
-68 260 -75 22 -3 54 -10 70 -15 106 -31 435 -49 735 -41 l135 3 6 -113 c7
-129 24 -191 75 -267 26 -40 32 -57 25 -70 -5 -9 -134 -141 -286 -292 l-276
-275 -31 35 c-67 76 -104 118 -127 146 -34 40 -215 248 -221 254 -6 6 -50 57
-130 150 -30 36 -73 85 -96 110 -22 25 -87 101 -145 170 -57 68 -111 132 -119
140 -8 9 -26 30 -39 46 -13 16 -38 45 -55 64 -17 20 -49 58 -71 85 -22 27 -57
68 -77 91 -34 36 -48 64 -33 64 3 0 35 -19 72 -43z m3141 -617 c339 -37 596
-120 837 -270 64 -40 183 -125 195 -140 3 -3 16 -13 28 -22 13 -9 85 -75 160
-146 142 -135 151 -148 167 -247 3 -22 10 -56 16 -75 5 -19 14 -78 20 -130 6
-52 17 -144 25 -205 18 -136 39 -347 53 -525 6 -74 15 -166 21 -205 16 -118
24 -368 12 -364 -11 4 -837 820 -1788 1766 l-471 468 29 43 c29 42 30 42 91
43 34 0 85 4 112 9 76 11 384 11 493 0z m-498 -456 l290 -287 -32 -26 c-18
-14 -57 -48 -88 -76 -31 -27 -85 -75 -120 -105 -36 -30 -90 -77 -120 -105 -31
-27 -85 -75 -120 -105 -36 -30 -87 -75 -115 -100 -28 -25 -75 -65 -104 -90
-92 -77 -145 -121 -171 -144 -14 -12 -83 -70 -155 -131 -191 -160 -248 -208
-264 -223 -22 -21 -61 -45 -65 -41 -3 2 14 33 35 69 65 106 147 276 180 374
17 50 33 98 37 106 15 39 54 235 73 370 11 84 14 526 4 625 l-7 65 114 0 c127
0 196 19 280 79 24 16 46 30 50 31 4 0 138 -129 298 -286z m-872 238 c24 -19
32 -32 32 -57 0 -18 5 -57 10 -86 14 -71 14 -481 0 -572 -24 -164 -29 -195
-44 -262 -26 -123 -38 -170 -47 -180 -5 -5 -9 -16 -9 -25 0 -8 -7 -28 -15 -44
-8 -15 -15 -33 -15 -39 0 -23 -106 -218 -166 -307 -102 -149 -182 -245 -337
-402 -63 -64 -80 -76 -132 -90 -83 -23 -160 -38 -252 -48 -90 -10 -206 -25
-313 -40 -41 -6 -129 -15 -195 -20 -118 -9 -243 -20 -460 -40 -202 -19 -348
-24 -344 -13 2 6 393 404 869 883 476 480 977 986 1114 1125 138 140 255 251
260 248 6 -4 26 -18 44 -31z"/>
<path d="M5046 5466 c-59 -22 -88 -47 -113 -96 -43 -82 -23 -190 45 -255 17
-17 73 -53 124 -81 127 -69 161 -121 124 -193 -19 -36 -55 -51 -121 -51 -38 0
-68 7 -101 25 -26 14 -50 25 -53 25 -4 0 -17 -20 -28 -44 -25 -51 -24 -54 51
-85 65 -29 199 -29 259 -2 134 61 163 232 57 338 -22 21 -77 60 -123 85 -120
68 -156 113 -142 179 14 64 121 90 198 49 20 -11 41 -20 45 -20 14 0 51 75 44
86 -28 44 -190 68 -266 40z"/>
<path d="M4447 5464 c-4 -4 -7 -180 -7 -391 l0 -383 185 0 185 0 0 50 0 49
-127 3 -128 3 -3 114 c-2 85 1 117 10 123 7 4 48 8 91 8 l77 0 0 50 0 49 -87
3 -88 3 -3 104 c-2 77 1 107 10 113 7 4 59 8 116 8 l103 0 -3 48 -3 47 -161 3
c-88 1 -163 -1 -167 -4z"/>
<path d="M5410 5420 l0 -49 93 -3 92 -3 5 -335 5 -335 55 0 55 0 5 335 5 335
93 3 92 3 0 49 0 50 -250 0 -250 0 0 -50z"/>
<path d="M14722 5105 c-51 -135 -92 -250 -92 -255 0 -6 61 -10 150 -10 l150 0
0 -90 0 -90 50 0 49 0 3 88 3 87 48 3 48 3 -3 42 -3 42 -47 3 -48 3 0 75 0 74
-44 0 -44 0 -7 -75 -7 -75 -79 0 c-57 0 -79 4 -79 13 0 6 29 90 65 186 36 96
65 179 65 186 0 10 -54 35 -77 35 -5 0 -51 -110 -101 -245z"/>
<path d="M13148 5331 c-46 -15 -82 -42 -115 -85 -18 -24 -33 -47 -33 -53 0 -5
16 -17 36 -27 l36 -17 37 39 c42 46 82 58 141 42 34 -9 44 -18 57 -47 32 -79
1 -136 -219 -405 -48 -59 -88 -110 -88 -113 0 -3 99 -5 220 -5 l220 0 0 45 0
44 -126 3 -125 3 84 109 c128 164 162 246 139 334 -16 60 -39 91 -85 115 -41
21 -138 31 -179 18z"/>
<path d="M13711 5328 c-107 -30 -161 -140 -161 -328 0 -122 17 -192 62 -257
41 -60 90 -83 178 -83 115 0 171 41 216 160 14 35 18 76 18 180 0 116 -4 143
-23 192 -46 119 -162 173 -290 136z m153 -104 c37 -38 56 -112 56 -220 0 -115
-15 -184 -51 -226 -24 -29 -33 -33 -77 -33 -98 0 -137 72 -137 255 0 182 37
250 135 250 38 0 53 -5 74 -26z"/>
<path d="M14268 5331 c-41 -14 -87 -49 -119 -94 -32 -44 -31 -50 13 -73 30
-16 31 -15 68 24 83 86 210 56 210 -50 0 -59 -37 -121 -176 -295 -70 -87 -131
-164 -137 -170 -7 -10 37 -13 217 -13 l227 0 -3 43 -3 42 -127 5 -127 5 85
109 c119 153 138 192 139 286 0 85 -18 122 -79 160 -38 23 -144 35 -188 21z"/>
<path d="M5932 4820 c-26 -11 -44 -52 -35 -77 13 -37 36 -53 74 -53 66 0 92
68 44 115 -25 26 -45 30 -83 15z"/>
<path d="M2052 4129 c-133 -17 -224 -60 -301 -145 -69 -75 -86 -130 -86 -274
1 -104 3 -121 28 -173 16 -35 53 -86 92 -126 57 -60 86 -79 228 -152 181 -94
239 -141 257 -209 34 -126 -48 -215 -200 -215 -90 0 -155 21 -240 76 -33 21
-66 39 -73 39 -16 0 -128 -205 -122 -222 9 -24 101 -77 178 -103 271 -91 534
-37 661 134 59 81 80 159 74 283 -4 77 -9 102 -32 147 -58 113 -130 170 -399
322 -101 56 -155 103 -178 153 -25 54 -23 93 4 140 33 59 80 79 182 78 89 -1
147 -22 212 -76 37 -31 35 -33 110 98 l52 91 -21 22 c-28 30 -123 78 -188 96
-73 20 -160 26 -238 16z"/>
<path d="M5928 4129 c-164 -21 -293 -107 -348 -232 -35 -79 -45 -174 -27 -262
18 -87 42 -138 94 -200 53 -64 113 -105 268 -184 195 -100 245 -152 245 -253
0 -108 -71 -163 -210 -162 -86 0 -159 25 -241 80 -28 19 -57 34 -64 34 -13 0
-125 -193 -125 -216 0 -16 70 -65 125 -89 124 -53 284 -75 414 -57 155 22 300
129 352 259 20 48 24 76 24 168 0 101 -3 115 -29 167 -60 120 -128 176 -376
313 -115 65 -186 123 -206 172 -32 75 -6 155 64 196 26 15 52 19 117 19 93 -1
152 -20 217 -73 l37 -29 15 22 c48 76 106 182 106 194 0 20 -70 68 -144 98
-51 20 -211 51 -236 45 -3 -1 -35 -5 -72 -10z"/>
<path d="M8510 4129 c-320 -40 -547 -228 -642 -529 -20 -66 -23 -95 -23 -240
0 -145 3 -174 23 -240 80 -254 256 -431 509 -512 58 -19 91 -22 218 -22 128 0
161 3 225 23 203 62 362 197 454 386 60 123 78 209 78 370 -1 236 -63 396
-212 546 -128 129 -253 190 -440 215 -58 7 -109 13 -115 13 -5 -1 -39 -5 -75
-10z m159 -249 c250 -33 401 -229 401 -519 0 -171 -44 -300 -133 -391 -100
-102 -212 -145 -365 -138 -86 4 -106 8 -175 41 -177 82 -277 258 -277 487 0
222 96 396 263 478 56 28 112 42 202 50 6 1 43 -3 84 -8z"/>
<path d="M14018 4129 c-176 -23 -305 -115 -357 -254 -70 -188 -6 -399 158
-519 25 -19 106 -65 180 -102 137 -71 211 -125 236 -175 21 -40 19 -127 -4
-165 -24 -39 -94 -74 -165 -81 -70 -7 -176 24 -261 78 -34 21 -67 39 -73 39
-12 0 -122 -192 -122 -214 0 -19 68 -66 135 -94 111 -46 165 -56 305 -56 130
0 138 1 215 34 64 27 94 47 146 99 91 91 113 149 114 291 0 94 -3 111 -28 164
-55 119 -125 182 -317 287 -133 72 -190 109 -226 147 -80 83 -69 201 24 255
26 15 52 19 117 19 93 -1 152 -20 217 -72 27 -22 38 -26 45 -17 34 43 114 199
110 211 -8 21 -80 65 -151 93 -48 18 -203 47 -226 42 -3 -1 -35 -5 -72 -10z"/>
<path d="M15048 4129 c-274 -36 -423 -231 -378 -497 12 -76 55 -159 113 -221
44 -46 141 -108 271 -172 165 -82 226 -146 226 -237 0 -53 -13 -84 -47 -116
-32 -30 -108 -56 -164 -56 -58 0 -168 38 -236 82 -35 22 -69 38 -76 35 -16 -6
-117 -187 -117 -210 0 -55 210 -140 379 -153 229 -17 422 75 499 239 52 111
52 263 1 367 -55 109 -129 172 -347 292 -152 84 -196 118 -222 169 -24 47 -26
121 -3 159 30 51 84 73 179 72 91 -1 126 -12 206 -68 l47 -34 39 68 c22 37 50
86 63 110 l24 43 -25 21 c-100 82 -280 127 -432 107z"/>
<path d="M2765 4098 c-3 -7 -4 -346 -3 -753 l3 -740 133 -3 132 -3 0 756 0
755 -130 0 c-95 0 -132 -3 -135 -12z"/>
<path d="M3290 3354 l0 -756 298 4 c327 5 355 9 489 73 218 102 351 288 393
547 16 97 8 300 -14 383 -57 211 -186 358 -385 437 -138 56 -231 68 -528 68
l-253 0 0 -756z m560 500 c241 -50 361 -232 347 -524 -12 -245 -115 -398 -309
-461 -61 -20 -94 -24 -198 -24 l-125 0 -3 500 c-1 275 0 506 3 513 7 18 192
16 285 -4z"/>
<path d="M4660 3355 l0 -755 375 0 375 0 0 120 0 120 -237 2 -238 3 -3 207 -2
208 22 5 c13 3 88 6 168 8 l145 2 0 115 0 115 -165 5 -165 5 0 175 0 175 205
5 205 5 0 115 0 115 -342 3 -343 2 0 -755z"/>
<path d="M6635 4098 c-3 -7 -4 -346 -3 -753 l3 -740 132 -3 133 -3 2 338 3
338 232 3 233 2 2 -337 3 -338 133 -3 132 -3 0 756 0 756 -132 -3 -133 -3 -5
-295 -5 -295 -219 -3 c-153 -2 -223 1 -232 9 -11 9 -14 67 -14 300 l0 289
-130 0 c-95 0 -132 -3 -135 -12z"/>
<path d="M9550 3355 l0 -755 135 0 135 0 2 267 3 268 125 13 c196 20 293 60
378 157 78 89 114 192 115 335 2 243 -110 392 -339 450 -66 17 -111 20 -316
20 l-238 0 0 -755z m449 504 c58 -12 124 -56 145 -97 8 -15 19 -53 25 -84 12
-69 -6 -154 -44 -204 -47 -61 -190 -108 -274 -89 l-31 7 0 232 c0 128 3 236 7
239 10 11 116 8 172 -4z"/>
<path d="M11100 3355 l0 -756 133 3 132 3 3 338 2 337 233 -2 232 -3 3 -338 2
-338 133 3 132 3 0 750 0 750 -132 3 -133 3 0 -296 0 -295 -22 -5 c-13 -3
-117 -4 -233 -3 l-210 3 -5 295 -5 295 -132 3 -133 3 0 -756z"/>
<path d="M12347 4103 c-11 -10 -8 -911 3 -999 29 -227 110 -379 245 -458 140
-83 394 -87 551 -11 124 60 204 166 256 336 21 72 22 88 26 607 l3 533 -133
-3 -133 -3 -5 -525 c-5 -512 -6 -526 -27 -584 -26 -68 -60 -108 -118 -139 -32
-17 -58 -21 -125 -21 -109 0 -171 27 -213 96 -59 95 -60 106 -64 666 l-4 512
-128 0 c-70 0 -131 -3 -134 -7z"/>
<path d="M15760 3355 l0 -755 343 2 342 3 3 118 3 117 -198 0 c-109 0 -204 4
-210 8 -10 6 -13 148 -15 633 l-3 624 -132 3 -133 3 0 -756z"/>
<path d="M16575 4098 c-3 -7 -4 -346 -3 -753 l3 -740 369 -3 c289 -2 371 1
378 10 10 17 10 199 0 215 -6 9 -70 13 -242 15 l-235 3 -3 207 -2 208 22 5
c13 3 88 6 168 8 l145 2 0 115 0 115 -165 5 -165 5 0 175 0 175 208 3 207 2 0
120 0 120 -340 0 c-263 0 -342 -3 -345 -12z"/>
<path d="M6364 2007 c-2 -7 -3 -91 -2 -187 3 -172 3 -175 25 -178 21 -3 22 1
25 65 l3 68 46 6 c58 9 85 26 101 63 28 68 3 136 -57 162 -44 18 -134 19 -141
1z m138 -54 c47 -42 4 -138 -58 -131 -28 3 -29 5 -32 62 -2 32 -1 65 2 72 7
19 66 17 88 -3z"/>
<path d="M8495 2008 c-3 -8 -4 -92 -3 -188 3 -173 3 -175 26 -178 20 -3 22 1
22 35 0 35 13 63 31 63 3 0 20 -22 37 -50 24 -39 37 -50 57 -50 14 0 25 3 25
6 0 4 -18 36 -40 71 l-41 64 41 47 40 47 -27 3 c-23 3 -36 -6 -75 -50 l-47
-53 -3 120 c-3 105 -5 120 -21 123 -9 2 -19 -3 -22 -10z"/>
<path d="M10442 2012 c-9 -7 -12 -51 -10 -188 l3 -179 25 0 c24 0 25 2 28 75
3 82 25 120 68 120 34 0 43 -20 46 -110 3 -81 4 -85 26 -88 l24 -4 -4 100 c-2
81 -7 104 -22 121 -23 25 -81 28 -114 5 l-22 -15 0 79 c0 64 -3 81 -16 86 -19
7 -16 7 -32 -2z"/>
<path d="M11487 2014 c-4 -4 -7 -43 -7 -86 0 -43 -3 -78 -7 -78 -5 0 -17 7
-27 15 -34 25 -91 19 -128 -14 -30 -27 -33 -35 -33 -86 0 -51 3 -59 32 -86 44
-39 77 -46 120 -25 33 16 36 16 48 0 7 -11 19 -15 29 -11 15 6 16 26 14 189
-3 156 -5 183 -18 186 -9 1 -19 0 -23 -4z m-39 -194 c27 -25 30 -85 5 -112
-16 -18 -68 -24 -89 -10 -22 14 -35 53 -29 83 12 55 73 76 113 39z"/>
<path d="M6791 1982 c-12 -23 4 -52 28 -52 22 0 34 25 26 51 -8 24 -41 25 -54
1z"/>
<path d="M12246 1982 c-14 -44 26 -71 55 -36 9 11 10 20 2 32 -15 25 -50 27
-57 4z"/>
<path d="M6612 1763 c3 -114 4 -118 26 -121 21 -3 22 0 22 65 0 79 16 110 58
115 21 2 28 9 30 31 3 22 -1 27 -17 27 -12 0 -30 -9 -42 -21 l-20 -20 -6 20
c-4 14 -13 21 -29 21 l-25 0 3 -117z"/>
<path d="M6792 1763 c3 -114 4 -118 26 -121 22 -3 22 -2 22 117 l0 121 -25 0
-26 0 3 -117z"/>
<path d="M6963 1870 c-39 -16 -65 -69 -60 -120 7 -68 78 -122 140 -106 62 17
59 46 -6 46 -51 0 -63 7 -76 43 -13 34 -6 70 20 93 14 12 28 15 58 10 46 -7
65 9 36 31 -21 15 -79 16 -112 3z"/>
<path d="M7164 1846 c-29 -29 -34 -41 -34 -83 0 -28 7 -58 16 -71 32 -47 105
-65 159 -40 40 18 24 33 -38 36 -44 2 -60 8 -71 24 -9 12 -13 25 -10 30 3 4
41 8 85 8 89 0 94 6 65 75 -17 41 -42 55 -96 55 -34 0 -48 -6 -76 -34z m121
-19 c29 -22 8 -37 -51 -37 -58 0 -63 4 -37 32 19 21 62 24 88 5z"/>
<path d="M7422 1864 c-18 -12 -22 -24 -20 -52 3 -34 8 -39 58 -63 74 -35 73
-54 -2 -53 -45 1 -58 -2 -60 -15 -4 -18 40 -41 79 -41 37 0 82 28 89 54 9 37
-10 61 -66 85 -37 16 -50 27 -48 39 3 13 14 17 47 17 46 0 66 19 40 36 -23 14
-93 10 -117 -7z"/>
<path d="M7742 1763 l3 -118 25 0 c24 0 25 2 28 75 3 82 25 120 68 120 34 0
43 -20 46 -110 3 -77 5 -85 23 -85 18 0 21 8 25 77 6 84 25 118 66 118 33 0
38 -14 44 -110 5 -79 7 -85 28 -88 21 -3 22 -1 22 91 0 80 -3 98 -21 121 -24
31 -75 35 -114 10 -22 -14 -26 -14 -47 0 -29 21 -77 20 -107 0 -22 -16 -24
-16 -33 0 -5 9 -20 16 -34 16 l-25 0 3 -117z"/>
<path d="M8230 1863 c-40 -28 -49 -45 -50 -96 0 -55 20 -91 61 -113 35 -18 69
-18 93 1 25 19 46 19 46 0 0 -8 9 -15 20 -15 19 0 20 7 20 120 0 111 -1 120
-19 120 -10 0 -22 -7 -25 -15 -5 -14 -9 -14 -35 0 -39 20 -81 19 -111 -2z
m119 -49 c25 -32 27 -71 5 -102 -21 -31 -87 -31 -108 0 -35 50 -2 128 54 128
19 0 36 -9 49 -26z"/>
<path d="M8778 1864 c-79 -42 -74 -168 8 -207 41 -20 69 -21 112 -6 25 9 30
14 23 27 -7 12 -21 15 -54 13 -54 -3 -87 12 -87 39 0 18 7 20 80 20 l80 0 0
36 c0 76 -89 118 -162 78z m100 -36 c26 -26 13 -38 -43 -38 -41 0 -55 4 -55
15 0 30 73 48 98 23z"/>
<path d="M9017 1860 c-49 -39 -28 -85 56 -123 20 -9 37 -24 37 -33 0 -13 -10
-15 -57 -12 -47 2 -58 0 -61 -13 -2 -11 8 -20 29 -28 45 -16 69 -14 107 9 61
37 36 98 -53 127 -20 6 -30 16 -30 29 0 16 7 19 48 17 44 -1 48 0 45 20 -4 32
-83 37 -121 7z"/>
<path d="M9335 1818 c13 -35 33 -85 44 -111 25 -57 26 -78 7 -115 -7 -15 -17
-37 -20 -49 -6 -19 -4 -23 17 -23 21 0 29 15 82 148 32 81 65 162 72 180 13
32 13 32 -14 32 -26 0 -30 -6 -57 -85 -34 -100 -40 -99 -75 13 -22 67 -25 72
-52 72 l-28 0 24 -62z"/>
<path d="M9624 1861 c-85 -52 -59 -192 41 -217 56 -14 130 33 141 91 20 106
-90 182 -182 126z m111 -46 c29 -28 31 -54 10 -95 -13 -24 -22 -30 -50 -30
-66 0 -97 69 -54 124 26 33 62 34 94 1z"/>
<path d="M9860 1794 c0 -85 9 -118 39 -141 22 -17 63 -16 87 2 25 19 44 19 44
0 0 -8 9 -15 20 -15 19 0 20 7 20 120 l0 120 -25 0 c-24 0 -25 -2 -25 -73 0
-86 -16 -117 -60 -117 -40 0 -50 23 -50 114 0 74 -1 76 -25 76 -25 0 -25 -1
-25 -86z"/>
<path d="M10140 1759 c0 -119 0 -120 23 -117 20 3 22 10 27 81 5 79 14 97 52
97 17 0 38 28 38 49 0 16 -46 13 -60 -4 -7 -8 -16 -15 -21 -15 -5 0 -9 7 -9
15 0 9 -9 15 -25 15 l-25 0 0 -121z"/>
<path d="M10751 1855 c-110 -93 2 -263 134 -203 39 18 24 33 -37 36 -39 2 -61
9 -73 22 -28 30 -10 40 76 40 73 0 79 2 79 20 0 33 -27 88 -48 99 -37 20 -98
13 -131 -14z m113 -31 c25 -24 10 -34 -50 -34 -58 0 -63 4 -37 32 20 22 66 23
87 2z"/>
<path d="M11033 1870 c-50 -20 -76 -105 -49 -159 18 -34 69 -71 99 -71 10 0
32 7 48 16 28 14 32 14 43 -2 8 -10 20 -15 30 -11 13 5 16 24 16 122 l0 115
-25 0 c-16 0 -25 -6 -25 -15 0 -19 -9 -19 -34 0 -22 16 -69 19 -103 5z m112
-55 c48 -47 19 -125 -47 -125 -44 0 -68 25 -68 72 0 72 66 103 115 53z"/>
<path d="M11755 1868 c-62 -35 -42 -90 48 -131 53 -24 43 -42 -24 -42 -42 0
-54 -4 -57 -16 -3 -18 42 -39 82 -39 37 0 86 37 86 65 0 31 -38 69 -82 81 -23
7 -33 16 -33 29 0 17 7 20 44 20 46 0 67 19 40 36 -20 12 -80 11 -104 -3z"/>
<path d="M11942 1703 c3 -176 3 -178 26 -181 21 -3 22 0 22 72 0 42 3 76 8 76
4 -1 18 -7 32 -15 33 -19 62 -19 98 2 56 32 75 92 52 160 -19 54 -109 82 -154
48 -25 -19 -36 -19 -36 0 0 9 -9 15 -25 15 l-25 0 2 -177z m170 120 c54 -62
16 -143 -62 -131 -33 5 -64 50 -56 82 15 59 84 87 118 49z"/>
<path d="M12250 1759 c0 -119 0 -120 23 -117 21 3 22 7 25 121 l3 117 -26 0
-25 0 0 -121z"/>
<path d="M12362 1763 c3 -114 4 -118 26 -121 21 -3 22 0 22 63 0 84 26 134 70
135 36 0 44 -18 50 -107 4 -80 7 -88 25 -88 18 0 20 8 23 75 4 88 -2 114 -28
140 -24 24 -78 26 -106 5 -25 -19 -34 -19 -34 0 0 9 -9 15 -25 15 l-26 0 3
-117z"/>
</g>
</svg>
